<?xml version="1.0" encoding="UTF-8"?>
<svg width="107px" height="126px" viewBox="0 0 107 126" version="1.1" xmlns="http://www.w3.org/2000/svg" xmlns:xlink="http://www.w3.org/1999/xlink">
    <!-- Generator: Sketch 64 (93537) - https://sketch.com -->
    <title>Plus</title>
    <desc>Created with Sketch.</desc>
    <g id="Latest" stroke="none" stroke-width="1" fill="none" fill-rule="evenodd">
        <g id="Plus">
            <path d="M73.7591167,7.07876154 L57.9739155,0 L32.5313507,15.589675 L32.5313507,52.3653184 L0,70.9522271 L0,100.18251 L15.3664834,107.156252 L34.3343117,91.5882021 L34.3343117,121.368479 L48.316552,126 C51.8028792,118.271785 53.5460427,114.007942 53.5460427,113.208472 C53.5460427,112.409001 53.5460427,95.420253 53.5460427,62.2422268 L102.026442,34.2607589 L106,25.8663185 L91.0829687,19.9867628 L73.799906,30.0289727 L73.7591167,7.07876154 Z" id="Back" fill="#569800"></path>
            <path d="M74,7 L73.9999226,44.399 L106.239823,26.0455057 L106.239823,55.377968 L73.9999226,73.91 L74,111 L49,126 L48.9999226,88.281 L16.1369226,107.172434 L16.1369226,77.3419484 L48.9999226,58.632 L49,22.6 L74,7 Z" id="Front" fill="#77D200"></path>
        </g>
    </g>
</svg>